<svg xml:space="preserve" style="max-height: 500px" viewBox="0 0 800 721.6" y="0px" x="0px" xmlns:xlink="http://www.w3.org/1999/xlink" xmlns="http://www.w3.org/2000/svg" version="1.1" width="800" height="721.6">
<g id="Background">
	<rect height="800" width="800" style="fill:#FFFFFF;"/>
</g>
<g id="Designed_by_freepik">
	<g>
		<g>
			<path d="M278.409,769.665v-0.281c-0.38,0.434-0.754,0.79-1.124,1.061c-0.369,0.275-0.77,0.481-1.202,0.622&#10;&#9;&#9;&#9;&#9;c-0.431,0.145-0.902,0.213-1.413,0.213c-0.677,0-1.304-0.143-1.88-0.428c-0.576-0.288-1.075-0.696-1.496-1.229&#10;&#9;&#9;&#9;&#9;c-0.422-0.53-0.741-1.154-0.958-1.874c-0.217-0.718-0.326-1.495-0.326-2.33c0-1.768,0.432-3.146,1.295-4.134&#10;&#9;&#9;&#9;&#9;c0.863-0.986,1.999-1.48,3.408-1.48c0.814,0,1.501,0.141,2.06,0.42c0.56,0.279,1.105,0.711,1.637,1.288v-4.172&#10;&#9;&#9;&#9;&#9;c0-0.581,0.115-1.018,0.347-1.316c0.23-0.296,0.56-0.445,0.989-0.445c0.428,0,0.757,0.136,0.989,0.409&#10;&#9;&#9;&#9;&#9;c0.232,0.275,0.347,0.675,0.347,1.208v12.47c0,0.539-0.123,0.941-0.373,1.212c-0.249,0.268-0.569,0.403-0.963,0.403&#10;&#9;&#9;&#9;&#9;c-0.387,0-0.706-0.138-0.958-0.417C278.535,770.581,278.409,770.183,278.409,769.665z M272.847,765.512&#10;&#9;&#9;&#9;&#9;c0,0.767,0.119,1.418,0.357,1.957c0.238,0.539,0.564,0.944,0.979,1.216c0.415,0.273,0.867,0.411,1.357,0.411&#10;&#9;&#9;&#9;&#9;c0.497,0,0.951-0.13,1.362-0.39c0.411-0.258,0.739-0.656,0.983-1.19c0.245-0.534,0.367-1.206,0.367-2.004&#10;&#9;&#9;&#9;&#9;c0-0.754-0.122-1.401-0.367-1.945c-0.245-0.541-0.576-0.954-0.994-1.242c-0.418-0.285-0.875-0.428-1.372-0.428&#10;&#9;&#9;&#9;&#9;c-0.518,0-0.98,0.147-1.388,0.439c-0.407,0.294-0.723,0.713-0.947,1.263C272.959,764.149,272.847,764.786,272.847,765.512z" style="fill:#2FAFC1;"/>
			<path d="M290.877,766.228h-5.53c0.007,0.641,0.136,1.208,0.389,1.697c0.251,0.49,0.587,0.861,1.004,1.107&#10;&#9;&#9;&#9;&#9;c0.418,0.249,0.879,0.373,1.383,0.373c0.338,0,0.647-0.038,0.927-0.117c0.28-0.081,0.551-0.204,0.814-0.375&#10;&#9;&#9;&#9;&#9;c0.263-0.168,0.504-0.349,0.725-0.543c0.22-0.194,0.506-0.458,0.859-0.788c0.145-0.124,0.352-0.188,0.622-0.188&#10;&#9;&#9;&#9;&#9;c0.29,0,0.524,0.081,0.703,0.241c0.18,0.16,0.27,0.381,0.27,0.673c0,0.255-0.101,0.552-0.3,0.895&#10;&#9;&#9;&#9;&#9;c-0.202,0.343-0.504,0.671-0.907,0.984c-0.405,0.315-0.911,0.575-1.523,0.782c-0.61,0.209-1.313,0.311-2.107,0.311&#10;&#9;&#9;&#9;&#9;c-1.815,0-3.228-0.518-4.236-1.553c-1.008-1.035-1.512-2.441-1.512-4.215c0-0.837,0.124-1.612,0.372-2.326&#10;&#9;&#9;&#9;&#9;c0.249-0.716,0.612-1.327,1.087-1.838c0.477-0.511,1.063-0.903,1.761-1.176c0.697-0.273,1.471-0.409,2.32-0.409&#10;&#9;&#9;&#9;&#9;c1.104,0,2.052,0.232,2.841,0.699c0.792,0.466,1.384,1.069,1.777,1.806c0.392,0.739,0.59,1.493,0.59,2.258&#10;&#9;&#9;&#9;&#9;c0,0.714-0.204,1.173-0.611,1.384C292.19,766.121,291.616,766.228,290.877,766.228z M285.347,764.622h5.127&#10;&#9;&#9;&#9;&#9;c-0.068-0.967-0.331-1.691-0.782-2.17c-0.453-0.481-1.047-0.72-1.786-0.72c-0.704,0-1.283,0.243-1.735,0.728&#10;&#9;&#9;&#9;&#9;C285.718,762.948,285.444,763.668,285.347,764.622z" style="fill:#2FAFC1;"/>
			<path d="M303.76,767.582c0,0.779-0.189,1.448-0.57,2.004c-0.379,0.556-0.94,0.977-1.683,1.265&#10;&#9;&#9;&#9;&#9;c-0.742,0.285-1.645,0.428-2.708,0.428c-1.015,0-1.885-0.156-2.61-0.466c-0.725-0.309-1.26-0.698-1.605-1.163&#10;&#9;&#9;&#9;&#9;c-0.346-0.469-0.518-0.935-0.518-1.406c0-0.311,0.11-0.575,0.332-0.797c0.22-0.219,0.5-0.33,0.839-0.33&#10;&#9;&#9;&#9;&#9;c0.296,0,0.523,0.072,0.683,0.217c0.159,0.145,0.311,0.349,0.455,0.609c0.29,0.507,0.638,0.88,1.042,1.131&#10;&#9;&#9;&#9;&#9;c0.404,0.247,0.954,0.373,1.652,0.373c0.566,0,1.03-0.128,1.393-0.379c0.362-0.253,0.543-0.541,0.543-0.865&#10;&#9;&#9;&#9;&#9;c0-0.498-0.187-0.858-0.564-1.086c-0.376-0.228-0.996-0.447-1.859-0.654c-0.973-0.241-1.766-0.496-2.377-0.763&#10;&#9;&#9;&#9;&#9;c-0.611-0.264-1.099-0.615-1.465-1.05c-0.366-0.435-0.549-0.971-0.549-1.606c0-0.564,0.169-1.101,0.507-1.606&#10;&#9;&#9;&#9;&#9;c0.339-0.503,0.837-0.905,1.498-1.205c0.658-0.3,1.454-0.451,2.386-0.451c0.732,0,1.39,0.077,1.973,0.23&#10;&#9;&#9;&#9;&#9;c0.584,0.149,1.072,0.356,1.461,0.611c0.39,0.253,0.687,0.537,0.89,0.848c0.203,0.311,0.305,0.613,0.305,0.912&#10;&#9;&#9;&#9;&#9;c0,0.324-0.109,0.59-0.325,0.799c-0.217,0.204-0.526,0.311-0.928,0.311c-0.29,0-0.537-0.083-0.74-0.251&#10;&#9;&#9;&#9;&#9;c-0.203-0.164-0.437-0.413-0.699-0.743c-0.214-0.277-0.465-0.498-0.756-0.664c-0.29-0.166-0.684-0.247-1.181-0.247&#10;&#9;&#9;&#9;&#9;c-0.511,0-0.935,0.107-1.273,0.326c-0.338,0.217-0.508,0.488-0.508,0.812c0,0.298,0.124,0.541,0.372,0.73&#10;&#9;&#9;&#9;&#9;c0.249,0.192,0.584,0.349,1.006,0.473c0.421,0.124,1,0.275,1.74,0.454c0.876,0.215,1.592,0.471,2.148,0.767&#10;&#9;&#9;&#9;&#9;c0.555,0.296,0.976,0.647,1.264,1.052C303.617,766.605,303.76,767.065,303.76,767.582z" style="fill:#2FAFC1;"/>
			<path d="M306.648,758.469c-0.394,0-0.73-0.121-1.01-0.362c-0.279-0.241-0.42-0.584-0.42-1.026&#10;&#9;&#9;&#9;&#9;c0-0.4,0.143-0.728,0.43-0.988c0.286-0.26,0.62-0.39,0.999-0.39c0.366,0,0.691,0.117,0.973,0.354&#10;&#9;&#9;&#9;&#9;c0.283,0.234,0.425,0.575,0.425,1.025c0,0.437-0.139,0.775-0.415,1.02C307.356,758.346,307.028,758.469,306.648,758.469z&#10;&#9;&#9;&#9;&#9; M308.047,761.389v8.172c0,0.567-0.135,0.995-0.404,1.284c-0.27,0.29-0.611,0.435-1.025,0.435c-0.415,0-0.751-0.147-1.01-0.445&#10;&#9;&#9;&#9;&#9;c-0.259-0.296-0.388-0.722-0.388-1.274v-8.089c0-0.558,0.129-0.98,0.388-1.263c0.259-0.283,0.595-0.426,1.01-0.426&#10;&#9;&#9;&#9;&#9;c0.415,0,0.755,0.143,1.025,0.426C307.912,760.492,308.047,760.886,308.047,761.389z" style="fill:#2FAFC1;"/>
			<path d="M320.433,761.856v8.212c0,0.939-0.101,1.748-0.302,2.426c-0.199,0.675-0.52,1.235-0.963,1.676&#10;&#9;&#9;&#9;&#9;c-0.442,0.441-1.02,0.771-1.734,0.984c-0.715,0.215-1.604,0.322-2.667,0.322c-0.973,0-1.843-0.136-2.61-0.409&#10;&#9;&#9;&#9;&#9;c-0.766-0.275-1.355-0.626-1.771-1.056c-0.414-0.432-0.622-0.875-0.622-1.331c0-0.345,0.118-0.628,0.353-0.843&#10;&#9;&#9;&#9;&#9;c0.234-0.219,0.518-0.328,0.849-0.328c0.414,0,0.777,0.183,1.088,0.549c0.151,0.185,0.308,0.375,0.471,0.564&#10;&#9;&#9;&#9;&#9;c0.162,0.192,0.343,0.354,0.539,0.488c0.197,0.134,0.433,0.234,0.709,0.3c0.276,0.064,0.595,0.098,0.953,0.098&#10;&#9;&#9;&#9;&#9;c0.732,0,1.3-0.102,1.704-0.307c0.404-0.202,0.687-0.488,0.849-0.854c0.162-0.364,0.257-0.756,0.285-1.176&#10;&#9;&#9;&#9;&#9;c0.028-0.417,0.048-1.088,0.062-2.015c-0.435,0.609-0.936,1.071-1.507,1.389c-0.569,0.317-1.248,0.477-2.034,0.477&#10;&#9;&#9;&#9;&#9;c-0.946,0-1.773-0.243-2.481-0.726c-0.707-0.483-1.251-1.159-1.63-2.03c-0.38-0.871-0.569-1.874-0.569-3.014&#10;&#9;&#9;&#9;&#9;c0-0.848,0.115-1.616,0.346-2.298c0.232-0.686,0.562-1.261,0.989-1.732c0.428-0.469,0.922-0.822,1.481-1.061&#10;&#9;&#9;&#9;&#9;c0.559-0.238,1.173-0.358,1.844-0.358c0.8,0,1.495,0.156,2.082,0.46c0.586,0.309,1.133,0.79,1.636,1.446v-0.383&#10;&#9;&#9;&#9;&#9;c0-0.49,0.12-0.869,0.362-1.139c0.242-0.268,0.553-0.405,0.933-0.405c0.545,0,0.907,0.179,1.087,0.534&#10;&#9;&#9;&#9;&#9;C320.343,760.673,320.433,761.187,320.433,761.856z M312.241,765.44c0,1.146,0.25,2.013,0.75,2.598&#10;&#9;&#9;&#9;&#9;c0.501,0.588,1.148,0.882,1.942,0.882c0.469,0,0.913-0.128,1.33-0.379c0.419-0.251,0.758-0.633,1.021-1.139&#10;&#9;&#9;&#9;&#9;c0.261-0.507,0.393-1.122,0.393-1.849c0-1.152-0.254-2.051-0.761-2.692c-0.508-0.641-1.176-0.963-2.005-0.963&#10;&#9;&#9;&#9;&#9;c-0.808,0-1.455,0.307-1.941,0.922C312.483,763.434,312.241,764.307,312.241,765.44z" style="fill:#2FAFC1;"/>
			<path d="M324.926,761.349v0.341c0.496-0.656,1.04-1.137,1.631-1.444c0.591-0.307,1.268-0.462,2.035-0.462&#10;&#9;&#9;&#9;&#9;c0.746,0,1.412,0.164,1.999,0.488c0.586,0.326,1.026,0.784,1.315,1.376c0.187,0.347,0.308,0.72,0.363,1.12&#10;&#9;&#9;&#9;&#9;c0.055,0.4,0.084,0.912,0.084,1.534v5.26c0,0.567-0.13,0.995-0.389,1.284c-0.259,0.29-0.595,0.435-1.01,0.435&#10;&#9;&#9;&#9;&#9;c-0.422,0-0.763-0.147-1.025-0.445c-0.263-0.296-0.393-0.722-0.393-1.274v-4.713c0-0.931-0.13-1.644-0.389-2.138&#10;&#9;&#9;&#9;&#9;c-0.259-0.492-0.775-0.741-1.549-0.741c-0.503,0-0.963,0.151-1.377,0.452c-0.414,0.3-0.718,0.713-0.911,1.237&#10;&#9;&#9;&#9;&#9;c-0.138,0.422-0.207,1.208-0.207,2.362v3.542c0,0.573-0.133,1.003-0.398,1.291c-0.266,0.285-0.609,0.428-1.03,0.428&#10;&#9;&#9;&#9;&#9;c-0.408,0-0.742-0.147-1.005-0.445c-0.262-0.296-0.393-0.722-0.393-1.274v-8.172c0-0.539,0.117-0.941,0.352-1.208&#10;&#9;&#9;&#9;&#9;c0.235-0.264,0.556-0.398,0.963-0.398c0.249,0,0.474,0.06,0.675,0.177c0.199,0.119,0.36,0.294,0.481,0.528&#10;&#9;&#9;&#9;&#9;C324.866,760.722,324.926,761.01,324.926,761.349z" style="fill:#2FAFC1;"/>
			<path d="M342.127,766.228h-5.53c0.008,0.641,0.136,1.208,0.389,1.697c0.252,0.49,0.586,0.861,1.005,1.107&#10;&#9;&#9;&#9;&#9;c0.416,0.249,0.878,0.373,1.382,0.373c0.339,0,0.647-0.038,0.928-0.117c0.279-0.081,0.549-0.204,0.813-0.375&#10;&#9;&#9;&#9;&#9;c0.261-0.168,0.503-0.349,0.725-0.543c0.22-0.194,0.506-0.458,0.859-0.788c0.145-0.124,0.352-0.188,0.621-0.188&#10;&#9;&#9;&#9;&#9;c0.29,0,0.525,0.081,0.704,0.241c0.179,0.16,0.269,0.381,0.269,0.673c0,0.255-0.099,0.552-0.3,0.895&#10;&#9;&#9;&#9;&#9;c-0.201,0.343-0.503,0.671-0.907,0.984c-0.404,0.315-0.91,0.575-1.522,0.782c-0.611,0.209-1.314,0.311-2.108,0.311&#10;&#9;&#9;&#9;&#9;c-1.815,0-3.227-0.518-4.236-1.553c-1.007-1.035-1.512-2.441-1.512-4.215c0-0.837,0.125-1.612,0.373-2.326&#10;&#9;&#9;&#9;&#9;c0.249-0.716,0.612-1.327,1.088-1.838c0.476-0.511,1.063-0.903,1.76-1.176c0.697-0.273,1.471-0.409,2.32-0.409&#10;&#9;&#9;&#9;&#9;c1.104,0,2.051,0.232,2.842,0.699c0.791,0.466,1.383,1.069,1.777,1.806c0.393,0.739,0.59,1.493,0.59,2.258&#10;&#9;&#9;&#9;&#9;c0,0.714-0.203,1.173-0.611,1.384C343.44,766.121,342.867,766.228,342.127,766.228z M336.597,764.622h5.126&#10;&#9;&#9;&#9;&#9;c-0.069-0.967-0.33-1.691-0.782-2.17c-0.452-0.481-1.048-0.72-1.786-0.72c-0.705,0-1.284,0.243-1.736,0.728&#10;&#9;&#9;&#9;&#9;C336.967,762.948,336.694,763.668,336.597,764.622z" style="fill:#2FAFC1;"/>
			<path d="M353.653,769.665v-0.281c-0.38,0.434-0.754,0.79-1.123,1.061c-0.37,0.275-0.769,0.481-1.201,0.622&#10;&#9;&#9;&#9;&#9;c-0.431,0.145-0.902,0.213-1.413,0.213c-0.678,0-1.304-0.143-1.88-0.428c-0.577-0.288-1.076-0.696-1.497-1.229&#10;&#9;&#9;&#9;&#9;c-0.422-0.53-0.741-1.154-0.958-1.874c-0.218-0.718-0.326-1.495-0.326-2.33c0-1.768,0.431-3.146,1.294-4.134&#10;&#9;&#9;&#9;&#9;c0.863-0.986,1.999-1.48,3.408-1.48c0.815,0,1.502,0.141,2.061,0.42c0.559,0.279,1.105,0.711,1.636,1.288v-4.172&#10;&#9;&#9;&#9;&#9;c0-0.581,0.116-1.018,0.348-1.316c0.231-0.296,0.561-0.445,0.989-0.445c0.428,0,0.757,0.136,0.989,0.409&#10;&#9;&#9;&#9;&#9;c0.231,0.275,0.347,0.675,0.347,1.208v12.47c0,0.539-0.124,0.941-0.373,1.212c-0.249,0.268-0.569,0.403-0.963,0.403&#10;&#9;&#9;&#9;&#9;c-0.387,0-0.706-0.138-0.958-0.417C353.779,770.581,353.653,770.183,353.653,769.665z M348.092,765.512&#10;&#9;&#9;&#9;&#9;c0,0.767,0.118,1.418,0.357,1.957c0.238,0.539,0.564,0.944,0.98,1.216c0.414,0.273,0.866,0.411,1.356,0.411&#10;&#9;&#9;&#9;&#9;c0.498,0,0.952-0.13,1.362-0.39c0.411-0.258,0.74-0.656,0.984-1.19c0.246-0.534,0.368-1.206,0.368-2.004&#10;&#9;&#9;&#9;&#9;c0-0.754-0.122-1.401-0.368-1.945c-0.244-0.541-0.576-0.954-0.994-1.242c-0.419-0.285-0.875-0.428-1.373-0.428&#10;&#9;&#9;&#9;&#9;c-0.517,0-0.98,0.147-1.388,0.439c-0.407,0.294-0.723,0.713-0.948,1.263C348.203,764.149,348.092,764.786,348.092,765.512z" style="fill:#2FAFC1;"/>
			<path d="M365.209,757.196v4.317c0.531-0.552,1.073-0.975,1.626-1.267c0.552-0.294,1.236-0.441,2.051-0.441&#10;&#9;&#9;&#9;&#9;c0.939,0,1.762,0.224,2.471,0.667c0.706,0.447,1.255,1.093,1.646,1.938c0.39,0.846,0.586,1.849,0.586,3.009&#10;&#9;&#9;&#9;&#9;c0,0.856-0.109,1.64-0.326,2.355c-0.218,0.716-0.534,1.335-0.948,1.859c-0.415,0.524-0.917,0.931-1.507,1.218&#10;&#9;&#9;&#9;&#9;c-0.591,0.285-1.242,0.428-1.953,0.428c-0.435,0-0.845-0.051-1.227-0.156c-0.384-0.102-0.71-0.238-0.979-0.409&#10;&#9;&#9;&#9;&#9;c-0.268-0.168-0.498-0.343-0.688-0.522c-0.19-0.179-0.441-0.449-0.751-0.809v0.281c0,0.53-0.128,0.933-0.383,1.207&#10;&#9;&#9;&#9;&#9;c-0.254,0.273-0.579,0.407-0.973,0.407c-0.4,0-0.72-0.134-0.958-0.407c-0.238-0.275-0.357-0.677-0.357-1.207v-12.346&#10;&#9;&#9;&#9;&#9;c0-0.573,0.115-1.007,0.346-1.299c0.232-0.294,0.555-0.441,0.969-0.441c0.436,0,0.77,0.141,1.005,0.42&#10;&#9;&#9;&#9;&#9;C365.092,756.28,365.209,756.676,365.209,757.196z M365.344,765.595c0,1.124,0.257,1.989,0.771,2.592&#10;&#9;&#9;&#9;&#9;c0.514,0.605,1.19,0.909,2.025,0.909c0.711,0,1.324-0.309,1.838-0.928c0.514-0.618,0.771-1.504,0.771-2.656&#10;&#9;&#9;&#9;&#9;c0-0.745-0.106-1.389-0.32-1.927c-0.215-0.539-0.518-0.954-0.911-1.248c-0.394-0.292-0.853-0.439-1.378-0.439&#10;&#9;&#9;&#9;&#9;c-0.538,0-1.019,0.147-1.44,0.439c-0.421,0.294-0.752,0.718-0.995,1.274C365.465,764.166,365.344,764.829,365.344,765.595z" style="fill:#2FAFC1;"/>
			<path d="M377.254,771.633l0.259-0.633l-3.48-8.762c-0.214-0.503-0.322-0.871-0.322-1.099&#10;&#9;&#9;&#9;&#9;c0-0.241,0.063-0.464,0.187-0.671c0.125-0.209,0.295-0.375,0.512-0.498c0.218-0.126,0.444-0.187,0.679-0.187&#10;&#9;&#9;&#9;&#9;c0.407,0,0.714,0.13,0.922,0.39c0.208,0.258,0.39,0.628,0.548,1.112l2.393,6.96l2.268-6.472c0.179-0.524,0.341-0.935,0.487-1.233&#10;&#9;&#9;&#9;&#9;c0.145-0.296,0.298-0.496,0.46-0.599c0.162-0.104,0.392-0.158,0.689-0.158c0.215,0,0.419,0.057,0.616,0.172&#10;&#9;&#9;&#9;&#9;c0.197,0.113,0.348,0.266,0.455,0.46c0.107,0.194,0.161,0.396,0.161,0.611c-0.029,0.13-0.072,0.318-0.135,0.56&#10;&#9;&#9;&#9;&#9;c-0.063,0.241-0.138,0.488-0.227,0.735l-3.687,9.652c-0.318,0.85-0.629,1.514-0.933,1.998c-0.304,0.484-0.705,0.856-1.206,1.114&#10;&#9;&#9;&#9;&#9;c-0.501,0.26-1.176,0.39-2.025,0.39c-0.828,0-1.45-0.089-1.863-0.268c-0.416-0.181-0.622-0.509-0.622-0.986&#10;&#9;&#9;&#9;&#9;c0-0.324,0.098-0.575,0.296-0.75c0.196-0.177,0.488-0.266,0.874-0.266c0.152,0,0.301,0.021,0.446,0.064&#10;&#9;&#9;&#9;&#9;c0.18,0.041,0.335,0.062,0.465,0.062c0.324,0,0.58-0.047,0.767-0.145c0.186-0.096,0.353-0.264,0.502-0.503&#10;&#9;&#9;&#9;&#9;C376.889,772.447,377.061,772.095,377.254,771.633z" style="fill:#2FAFC1;"/>
		</g>
		<g>
			<path d="M418.213,760.028h0.675v-0.848c0-0.888,0.109-1.589,0.334-2.113&#10;&#9;&#9;&#9;&#9;c0.221-0.522,0.605-0.901,1.142-1.139c0.535-0.236,1.267-0.356,2.198-0.356c1.657,0,2.479,0.4,2.479,1.214&#10;&#9;&#9;&#9;&#9;c0,0.26-0.087,0.486-0.262,0.671c-0.168,0.185-0.375,0.279-0.609,0.279c-0.109,0-0.303-0.019-0.575-0.064&#10;&#9;&#9;&#9;&#9;c-0.258-0.036-0.492-0.062-0.679-0.062c-0.509,0-0.835,0.153-0.986,0.454c-0.138,0.3-0.213,0.728-0.213,1.291v0.673h0.69&#10;&#9;&#9;&#9;&#9;c1.08,0,1.614,0.324,1.614,0.978c0,0.456-0.138,0.752-0.428,0.877c-0.285,0.124-0.679,0.185-1.186,0.185h-0.69v7.492&#10;&#9;&#9;&#9;&#9;c0,0.558-0.132,0.982-0.403,1.274c-0.264,0.298-0.605,0.443-1.029,0.443c-0.4,0-0.73-0.145-1.001-0.443&#10;&#9;&#9;&#9;&#9;c-0.266-0.292-0.396-0.716-0.396-1.274v-7.492h-0.78c-0.424,0-0.743-0.092-0.973-0.285c-0.228-0.185-0.343-0.434-0.343-0.739&#10;&#9;&#9;&#9;&#9;C416.793,760.365,417.266,760.028,418.213,760.028" style="fill:#2FAFC1;"/>
			<path d="M427.471,767.197v2.364c0,0.571-0.145,1.003-0.409,1.286c-0.268,0.29-0.609,0.43-1.022,0.43&#10;&#9;&#9;&#9;&#9;c-0.415,0-0.75-0.143-1.01-0.437c-0.258-0.287-0.394-0.716-0.394-1.28v-7.876c0-1.272,0.458-1.906,1.376-1.906&#10;&#9;&#9;&#9;&#9;c0.473,0,0.809,0.147,1.018,0.445c0.207,0.298,0.322,0.735,0.345,1.316c0.336-0.581,0.681-1.018,1.035-1.316&#10;&#9;&#9;&#9;&#9;c0.362-0.298,0.831-0.445,1.427-0.445c0.598,0,1.169,0.147,1.729,0.445c0.562,0.298,0.841,0.694,0.841,1.182&#10;&#9;&#9;&#9;&#9;c0,0.343-0.121,0.632-0.356,0.852c-0.241,0.228-0.496,0.341-0.771,0.341c-0.109,0-0.36-0.068-0.754-0.196&#10;&#9;&#9;&#9;&#9;c-0.398-0.123-0.752-0.19-1.05-0.19c-0.415,0-0.756,0.113-1.016,0.326c-0.264,0.224-0.471,0.541-0.615,0.967&#10;&#9;&#9;&#9;&#9;c-0.141,0.43-0.239,0.944-0.298,1.531C427.495,765.627,427.471,766.349,427.471,767.197" style="fill:#2FAFC1;"/>
			<path d="M440.469,766.224h-5.533c0.011,0.641,0.136,1.212,0.388,1.7c0.256,0.488,0.588,0.858,1.007,1.109&#10;&#9;&#9;&#9;&#9;c0.42,0.247,0.877,0.371,1.384,0.371c0.339,0,0.645-0.036,0.926-0.122c0.277-0.077,0.549-0.202,0.811-0.373&#10;&#9;&#9;&#9;&#9;c0.264-0.166,0.503-0.347,0.724-0.545c0.222-0.19,0.509-0.454,0.863-0.784c0.147-0.124,0.354-0.19,0.62-0.19&#10;&#9;&#9;&#9;&#9;c0.292,0,0.524,0.081,0.707,0.243c0.181,0.16,0.266,0.381,0.266,0.673c0,0.256-0.098,0.554-0.292,0.892&#10;&#9;&#9;&#9;&#9;c-0.204,0.347-0.505,0.673-0.911,0.988c-0.409,0.311-0.916,0.575-1.525,0.779c-0.609,0.206-1.314,0.311-2.106,0.311&#10;&#9;&#9;&#9;&#9;c-1.821,0-3.231-0.515-4.238-1.55c-1.007-1.037-1.516-2.445-1.516-4.217c0-0.837,0.128-1.612,0.379-2.328&#10;&#9;&#9;&#9;&#9;c0.245-0.718,0.607-1.327,1.088-1.84c0.475-0.513,1.059-0.903,1.759-1.176c0.694-0.273,1.467-0.409,2.319-0.409&#10;&#9;&#9;&#9;&#9;c1.103,0,2.051,0.234,2.843,0.705c0.788,0.46,1.389,1.065,1.776,1.804c0.394,0.741,0.59,1.491,0.59,2.262&#10;&#9;&#9;&#9;&#9;c0,0.707-0.205,1.167-0.611,1.38C441.781,766.119,441.208,766.224,440.469,766.224 M434.936,764.616h5.126&#10;&#9;&#9;&#9;&#9;c-0.068-0.965-0.324-1.689-0.777-2.166c-0.456-0.481-1.046-0.72-1.789-0.72c-0.705,0-1.284,0.241-1.736,0.731&#10;&#9;&#9;&#9;&#9;C435.309,762.946,435.032,763.664,434.936,764.616" style="fill:#2FAFC1;"/>
			<path d="M452.232,766.224h-5.531c0.006,0.641,0.136,1.212,0.385,1.7c0.253,0.488,0.588,0.858,1.005,1.109&#10;&#9;&#9;&#9;&#9;c0.417,0.247,0.878,0.371,1.386,0.371c0.334,0,0.645-0.036,0.92-0.122c0.283-0.077,0.552-0.202,0.818-0.373&#10;&#9;&#9;&#9;&#9;c0.264-0.166,0.503-0.347,0.724-0.545c0.217-0.19,0.507-0.454,0.86-0.784c0.147-0.124,0.356-0.19,0.62-0.19&#10;&#9;&#9;&#9;&#9;c0.292,0,0.526,0.081,0.709,0.243c0.179,0.16,0.262,0.381,0.262,0.673c0,0.256-0.096,0.554-0.298,0.892&#10;&#9;&#9;&#9;&#9;c-0.194,0.347-0.496,0.673-0.905,0.988c-0.405,0.311-0.916,0.575-1.523,0.779c-0.607,0.206-1.316,0.311-2.109,0.311&#10;&#9;&#9;&#9;&#9;c-1.819,0-3.227-0.515-4.238-1.55c-1.007-1.037-1.514-2.445-1.514-4.217c0-0.837,0.126-1.612,0.379-2.328&#10;&#9;&#9;&#9;&#9;c0.247-0.718,0.609-1.327,1.086-1.84c0.475-0.513,1.061-0.903,1.759-1.176c0.696-0.273,1.474-0.409,2.321-0.409&#10;&#9;&#9;&#9;&#9;c1.101,0,2.049,0.234,2.849,0.705c0.786,0.46,1.38,1.065,1.768,1.804c0.392,0.741,0.594,1.491,0.594,2.262&#10;&#9;&#9;&#9;&#9;c0,0.707-0.209,1.167-0.611,1.38C453.541,766.119,452.968,766.224,452.232,766.224 M446.701,764.616h5.126&#10;&#9;&#9;&#9;&#9;c-0.07-0.965-0.332-1.689-0.779-2.166c-0.46-0.481-1.05-0.72-1.791-0.72c-0.705,0-1.282,0.241-1.738,0.731&#10;&#9;&#9;&#9;&#9;C447.069,762.946,446.792,763.664,446.701,764.616" style="fill:#2FAFC1;"/>
			<path d="M458.425,761.37v0.339c0.53-0.656,1.084-1.137,1.663-1.444c0.564-0.311,1.218-0.466,1.942-0.466&#10;&#9;&#9;&#9;&#9;c0.867,0,1.674,0.228,2.407,0.673c0.733,0.451,1.308,1.107,1.733,1.97c0.424,0.867,0.639,1.887,0.639,3.069&#10;&#9;&#9;&#9;&#9;c0,0.867-0.124,1.67-0.366,2.4c-0.245,0.728-0.586,1.338-1.014,1.832c-0.428,0.49-0.933,0.873-1.514,1.139&#10;&#9;&#9;&#9;&#9;c-0.592,0.264-1.212,0.396-1.885,0.396c-0.805,0-1.487-0.162-2.034-0.488c-0.547-0.318-1.071-0.799-1.572-1.423v4.245&#10;&#9;&#9;&#9;&#9;c0,1.237-0.454,1.863-1.357,1.863c-0.535,0-0.882-0.16-1.059-0.479c-0.166-0.326-0.256-0.788-0.256-1.408v-12.206&#10;&#9;&#9;&#9;&#9;c0-0.539,0.117-0.937,0.349-1.208c0.234-0.26,0.558-0.396,0.965-0.396c0.402,0,0.726,0.136,0.977,0.407&#10;&#9;&#9;&#9;&#9;C458.301,760.463,458.425,760.852,458.425,761.37 M463.969,765.478c0-0.748-0.115-1.389-0.343-1.923&#10;&#9;&#9;&#9;&#9;c-0.228-0.537-0.543-0.946-0.944-1.229c-0.4-0.288-0.854-0.432-1.344-0.432c-0.779,0-1.438,0.309-1.972,0.92&#10;&#9;&#9;&#9;&#9;c-0.537,0.618-0.807,1.521-0.807,2.718c0,1.12,0.266,2,0.803,2.624c0.53,0.626,1.184,0.937,1.976,0.937&#10;&#9;&#9;&#9;&#9;c0.466,0,0.905-0.138,1.306-0.407c0.405-0.275,0.724-0.684,0.963-1.229C463.847,766.909,463.969,766.249,463.969,765.478" style="fill:#2FAFC1;"/>
			<path d="M469.657,758.463c-0.396,0-0.73-0.126-1.007-0.366c-0.283-0.243-0.422-0.579-0.422-1.02&#10;&#9;&#9;&#9;&#9;c0-0.403,0.143-0.73,0.432-0.992c0.285-0.255,0.618-0.388,0.997-0.388c0.371,0,0.692,0.115,0.973,0.347&#10;&#9;&#9;&#9;&#9;c0.283,0.239,0.426,0.584,0.426,1.033c0,0.435-0.138,0.775-0.411,1.02C470.368,758.337,470.04,758.463,469.657,758.463&#10;&#9;&#9;&#9;&#9; M471.056,761.383v8.18c0,0.562-0.134,0.99-0.402,1.278c-0.273,0.294-0.611,0.437-1.027,0.437c-0.415,0-0.748-0.145-1.012-0.443&#10;&#9;&#9;&#9;&#9;c-0.255-0.3-0.388-0.724-0.388-1.271v-8.099c0-0.556,0.132-0.975,0.388-1.259c0.264-0.287,0.596-0.426,1.012-0.426&#10;&#9;&#9;&#9;&#9;c0.415,0,0.754,0.138,1.027,0.426C470.922,760.488,471.056,760.884,471.056,761.383" style="fill:#2FAFC1;"/>
			<path d="M480.172,769.987l-2.49-4.106l-1.536,1.448v2.253c0,0.543-0.145,0.961-0.432,1.252&#10;&#9;&#9;&#9;&#9;c-0.281,0.298-0.618,0.443-0.988,0.443c-0.434,0-0.779-0.143-1.026-0.437c-0.247-0.287-0.375-0.716-0.375-1.28v-12.063&#10;&#9;&#9;&#9;&#9;c0-0.626,0.126-1.103,0.362-1.433c0.243-0.332,0.594-0.492,1.039-0.492c0.435,0,0.777,0.149,1.035,0.447&#10;&#9;&#9;&#9;&#9;c0.255,0.296,0.385,0.735,0.385,1.312v6.862l3.18-3.34c0.394-0.411,0.69-0.698,0.901-0.85c0.207-0.151,0.458-0.226,0.752-0.226&#10;&#9;&#9;&#9;&#9;c0.356,0,0.647,0.113,0.89,0.336c0.23,0.224,0.349,0.507,0.349,0.843c0,0.413-0.385,0.969-1.15,1.659l-1.501,1.376l2.898,4.562&#10;&#9;&#9;&#9;&#9;c0.211,0.341,0.371,0.592,0.462,0.769c0.091,0.175,0.143,0.349,0.143,0.505c0,0.449-0.126,0.801-0.373,1.063&#10;&#9;&#9;&#9;&#9;c-0.245,0.258-0.571,0.385-0.965,0.385c-0.345,0-0.616-0.087-0.801-0.279C480.747,770.811,480.489,770.472,480.172,769.987" style="fill:#2FAFC1;"/>
			<path d="M486.318,771.277c-0.428,0-0.794-0.136-1.105-0.415c-0.311-0.271-0.468-0.66-0.468-1.161&#10;&#9;&#9;&#9;&#9;c0-0.42,0.151-0.784,0.447-1.084c0.3-0.304,0.662-0.458,1.099-0.458c0.435,0,0.803,0.153,1.116,0.449&#10;&#9;&#9;&#9;&#9;c0.305,0.3,0.46,0.669,0.46,1.093c0,0.494-0.155,0.882-0.46,1.156C487.093,771.141,486.731,771.277,486.318,771.277" style="fill:#2FAFC1;"/>
			<path d="M500.383,767.778c0,0.349-0.106,0.728-0.317,1.127c-0.209,0.405-0.533,0.784-0.967,1.146&#10;&#9;&#9;&#9;&#9;c-0.43,0.362-0.971,0.656-1.629,0.875c-0.656,0.221-1.397,0.334-2.215,0.334c-1.751,0-3.116-0.511-4.098-1.527&#10;&#9;&#9;&#9;&#9;c-0.975-1.02-1.467-2.387-1.467-4.1c0-1.165,0.224-2.187,0.675-3.08c0.445-0.888,1.095-1.578,1.942-2.066&#10;&#9;&#9;&#9;&#9;c0.85-0.488,1.872-0.731,3.048-0.731c0.735,0,1.404,0.106,2.019,0.322c0.611,0.213,1.127,0.492,1.555,0.828&#10;&#9;&#9;&#9;&#9;c0.422,0.343,0.747,0.701,0.969,1.082c0.226,0.383,0.337,0.741,0.337,1.076c0,0.336-0.124,0.624-0.375,0.858&#10;&#9;&#9;&#9;&#9;c-0.256,0.234-0.562,0.354-0.914,0.354c-0.239,0-0.435-0.062-0.59-0.181c-0.158-0.121-0.332-0.315-0.522-0.59&#10;&#9;&#9;&#9;&#9;c-0.347-0.522-0.705-0.918-1.086-1.178c-0.375-0.264-0.852-0.394-1.433-0.394c-0.831,0-1.508,0.324-2.021,0.978&#10;&#9;&#9;&#9;&#9;c-0.509,0.649-0.767,1.548-0.767,2.677c0,0.532,0.068,1.024,0.2,1.469c0.128,0.443,0.317,0.824,0.566,1.137&#10;&#9;&#9;&#9;&#9;c0.251,0.313,0.549,0.552,0.901,0.714c0.354,0.168,0.743,0.247,1.161,0.247c0.569,0,1.054-0.132,1.457-0.394&#10;&#9;&#9;&#9;&#9;c0.411-0.262,0.767-0.662,1.076-1.201c0.172-0.317,0.358-0.564,0.556-0.745c0.198-0.179,0.445-0.273,0.737-0.273&#10;&#9;&#9;&#9;&#9;c0.345,0,0.632,0.134,0.856,0.396C500.266,767.201,500.383,767.482,500.383,767.778" style="fill:#2FAFC1;"/>
			<path d="M512.584,765.531c0,0.839-0.132,1.619-0.388,2.332c-0.268,0.711-0.645,1.323-1.144,1.829&#10;&#9;&#9;&#9;&#9;c-0.496,0.511-1.093,0.903-1.78,1.178c-0.697,0.27-1.472,0.409-2.332,0.409c-0.856,0-1.627-0.138-2.313-0.417&#10;&#9;&#9;&#9;&#9;c-0.679-0.271-1.276-0.669-1.772-1.18c-0.503-0.52-0.882-1.127-1.148-1.827c-0.249-0.703-0.381-1.478-0.381-2.324&#10;&#9;&#9;&#9;&#9;c0-0.858,0.134-1.642,0.39-2.353c0.264-0.713,0.643-1.322,1.133-1.825c0.492-0.503,1.084-0.89,1.778-1.167&#10;&#9;&#9;&#9;&#9;c0.703-0.271,1.472-0.407,2.313-0.407c0.856,0,1.634,0.136,2.332,0.415c0.696,0.275,1.291,0.671,1.793,1.178&#10;&#9;&#9;&#9;&#9;c0.498,0.518,0.875,1.122,1.133,1.823C512.454,763.904,512.584,764.677,512.584,765.531 M509.745,765.531&#10;&#9;&#9;&#9;&#9;c0-1.154-0.256-2.051-0.76-2.692c-0.505-0.649-1.188-0.969-2.044-0.969c-0.554,0-1.042,0.145-1.463,0.43&#10;&#9;&#9;&#9;&#9;c-0.422,0.285-0.743,0.707-0.971,1.269c-0.228,0.56-0.343,1.214-0.343,1.961c0,0.739,0.111,1.382,0.337,1.934&#10;&#9;&#9;&#9;&#9;c0.228,0.556,0.547,0.977,0.967,1.271c0.42,0.29,0.909,0.441,1.474,0.441c0.856,0,1.54-0.324,2.044-0.973&#10;&#9;&#9;&#9;&#9;C509.49,767.561,509.745,766.667,509.745,765.531" style="fill:#2FAFC1;"/>
			<path d="M523.371,765.738v3.759c0,0.596-0.132,1.037-0.403,1.338c-0.273,0.298-0.624,0.445-1.067,0.445&#10;&#9;&#9;&#9;&#9;c-0.428,0-0.777-0.147-1.037-0.445c-0.268-0.3-0.404-0.741-0.404-1.338v-4.504c0-0.714-0.023-1.267-0.07-1.663&#10;&#9;&#9;&#9;&#9;c-0.049-0.386-0.183-0.714-0.394-0.963c-0.215-0.256-0.556-0.383-1.016-0.383c-0.926,0-1.533,0.317-1.827,0.961&#10;&#9;&#9;&#9;&#9;c-0.292,0.628-0.443,1.542-0.443,2.735v3.818c0,0.586-0.134,1.031-0.394,1.333c-0.273,0.298-0.62,0.449-1.052,0.449&#10;&#9;&#9;&#9;&#9;c-0.432,0-0.782-0.151-1.054-0.449c-0.275-0.302-0.411-0.748-0.411-1.333v-8.091c0-0.533,0.121-0.937,0.366-1.212&#10;&#9;&#9;&#9;&#9;c0.249-0.279,0.573-0.415,0.969-0.415c0.39,0,0.711,0.134,0.973,0.388c0.258,0.26,0.385,0.618,0.385,1.073v0.266&#10;&#9;&#9;&#9;&#9;c0.494-0.584,1.02-1.016,1.576-1.286c0.562-0.283,1.18-0.422,1.868-0.422c0.709,0,1.32,0.143,1.829,0.426&#10;&#9;&#9;&#9;&#9;c0.511,0.283,0.931,0.713,1.265,1.282c0.479-0.575,0.99-1.005,1.538-1.286c0.545-0.281,1.148-0.422,1.812-0.422&#10;&#9;&#9;&#9;&#9;c0.769,0,1.44,0.156,2,0.458c0.556,0.302,0.973,0.741,1.25,1.303c0.241,0.515,0.36,1.318,0.36,2.417v5.52&#10;&#9;&#9;&#9;&#9;c0,0.596-0.132,1.037-0.4,1.338c-0.268,0.298-0.626,0.445-1.067,0.445c-0.43,0-0.779-0.151-1.052-0.449&#10;&#9;&#9;&#9;&#9;c-0.273-0.302-0.411-0.748-0.411-1.333v-4.756c0-0.609-0.025-1.095-0.075-1.459c-0.051-0.369-0.194-0.677-0.417-0.924&#10;&#9;&#9;&#9;&#9;c-0.232-0.247-0.579-0.375-1.039-0.375c-0.373,0-0.726,0.117-1.063,0.337c-0.334,0.215-0.596,0.519-0.786,0.886&#10;&#9;&#9;&#9;&#9;C523.478,763.683,523.371,764.528,523.371,765.738" style="fill:#2FAFC1;"/>
		</g>
		<g>
			<path d="M391.751,764.846c-0.002-0.004-0.002-0.011-0.002-0.019&#10;&#9;&#9;&#9;&#9;C391.749,764.835,391.749,764.841,391.751,764.846z" style="fill:#2FAFC1;"/>
			<path d="M391.894,765.751c0.002,0,0.002,0,0.003,0c-0.054-0.258-0.096-0.513-0.129-0.767&#10;&#9;&#9;&#9;&#9;C391.801,765.24,391.843,765.495,391.894,765.751z" style="fill:#2FAFC1;"/>
			<path d="M392.83,768.375c-0.006-0.011-0.012-0.023-0.019-0.036&#10;&#9;&#9;&#9;&#9;C392.818,768.351,392.824,768.364,392.83,768.375z" style="fill:#2FAFC1;"/>
			<path d="M392.74,768.2c-0.024-0.049-0.048-0.098-0.071-0.147&#10;&#9;&#9;&#9;&#9;C392.693,768.104,392.716,768.151,392.74,768.2z" style="fill:#2FAFC1;"/>
			<path d="M392.157,766.76c0.138,0.437,0.305,0.86,0.498,1.263c-0.197-0.411-0.36-0.835-0.495-1.263&#10;&#9;&#9;&#9;&#9;C392.16,766.76,392.158,766.76,392.157,766.76z" style="fill:#2FAFC1;"/>
			<path d="M402.697,754.012c0.546,0,0.95,0.043,1.411,0.121l0.132-0.833c0,0-1.277-0.392-2.956-0.256&#10;&#9;&#9;&#9;&#9;l-0.132-0.451c0.522-0.111,0.914-0.575,0.914-1.129c0-0.635-0.517-1.148-1.153-1.148c-0.636,0-1.151,0.513-1.151,1.148&#10;&#9;&#9;&#9;&#9;c0,0.554,0.391,1.018,0.911,1.129l0.146,0.505c-1.782,0.245-3.2,0.939-3.2,0.939l0.251,0.769&#10;&#9;&#9;&#9;&#9;c1.078-0.358,2.013-0.577,2.861-0.669C401.562,754.05,402.187,754.012,402.697,754.012z" style="fill:#2FAFC1;"/>
			<path d="M392.809,758.218l0.007-0.008c0.042-0.053,0.082-0.104,0.124-0.156l-0.341-0.245l-0.532-0.39&#10;&#9;&#9;&#9;&#9;c-0.03,0.043-0.867,0.812-1.528,2.234c-0.028-0.045-0.061-0.09-0.098-0.13c-0.198-0.217-0.475-0.328-0.827-0.322&#10;&#9;&#9;&#9;&#9;c-0.004,0-0.01,0-0.016,0c-0.218,0-0.367-0.072-0.465-0.16c0.097-0.123,0.156-0.279,0.156-0.451c0-0.4-0.327-0.728-0.73-0.728&#10;&#9;&#9;&#9;&#9;c-0.402,0-0.729,0.328-0.729,0.728c0,0.405,0.327,0.731,0.729,0.731c0.063,0,0.124-0.011,0.182-0.023&#10;&#9;&#9;&#9;&#9;c0.179,0.2,0.464,0.373,0.881,0.364c0.215-0.002,0.372,0.053,0.477,0.17c0.121,0.132,0.162,0.322,0.174,0.466&#10;&#9;&#9;&#9;&#9;c-0.001,0.002-0.001,0.004-0.003,0.004c-0.475,1.297-0.339,2.911-0.339,2.911l1.153,0.047c0.023-0.588,0.108-1.617,0.405-2.432&#10;&#9;&#9;&#9;&#9;C392.061,759.249,392.779,758.26,392.809,758.218z" style="fill:#2FAFC1;"/>
			<path d="M412.727,754.974c-0.4,0-0.728,0.326-0.728,0.73c0,0.062,0.009,0.121,0.026,0.179&#10;&#9;&#9;&#9;&#9;c-0.2,0.181-0.375,0.466-0.368,0.884c0.004,0.215-0.051,0.37-0.168,0.477c-0.092,0.081-0.209,0.126-0.322,0.153&#10;&#9;&#9;&#9;&#9;c-0.858-1.203-1.915-1.936-1.915-1.936l-0.828,0.886c0.626,0.569,1.265,1.282,1.885,2.17c0.43,0.615,0.871,1.408,1.24,2.198&#10;&#9;&#9;&#9;&#9;l1.116-0.53c0,0-0.509-1.261-1.227-2.39c0.123-0.045,0.249-0.113,0.36-0.211c0.219-0.196,0.326-0.475,0.319-0.826&#10;&#9;&#9;&#9;&#9;c-0.002-0.226,0.073-0.379,0.162-0.481c0.126,0.096,0.281,0.155,0.449,0.155c0.405,0,0.73-0.326,0.73-0.728&#10;&#9;&#9;&#9;&#9;C413.457,755.3,413.132,754.974,412.727,754.974z" style="fill:#2FAFC1;"/>
			<path d="M409.831,765.01c-1.538,0.747-4.066,1.738-7.395,2.202c-1.307,0.181-2.573,0.247-3.738,0.247&#10;&#9;&#9;&#9;&#9;c-1.516,0-2.857-0.113-3.885-0.243c-1.173-0.147-2.091-0.328-2.652-0.456c0.135,0.428,0.298,0.852,0.495,1.263&#10;&#9;&#9;&#9;&#9;c0.004,0.011,0.008,0.023,0.014,0.03c0.023,0.049,0.047,0.098,0.071,0.147c0.023,0.047,0.047,0.094,0.071,0.138&#10;&#9;&#9;&#9;&#9;c0.007,0.013,0.012,0.026,0.019,0.036c0.33,0.622,0.727,1.193,1.178,1.689c1.57,1.717,3.17,1.989,3.185,1.991l0.025,0.002&#10;&#9;&#9;&#9;&#9;l0.023,0.009c0.014,0.006,1.433,0.464,3.589,0.464c2.121,0,4.203-0.428,6.186-1.274c1.47-0.752,2.86-1.893,3.548-2.911&#10;&#9;&#9;&#9;&#9;c0.532-0.788,0.918-1.627,1.146-2.5c0.121-0.464,0.217-1.208,0.16-1.991C411.439,764.145,410.755,764.558,409.831,765.01z" style="fill:#2FAFC1;"/>
			<path d="M393.302,758.582c-0.045,0.066-0.711,1.01-1.238,2.458c-0.395,1.084-0.377,2.664-0.377,2.681&#10;&#9;&#9;&#9;&#9;v0.004c0,0.371,0.021,0.737,0.062,1.101c0,0.008,0,0.015,0.002,0.019c0.004,0.047,0.012,0.092,0.017,0.138&#10;&#9;&#9;&#9;&#9;c0.033,0.253,0.075,0.509,0.129,0.767c0.764,0.194,5.32,1.257,10.412,0.547c3.192-0.445,5.616-1.389,7.087-2.102&#10;&#9;&#9;&#9;&#9;c1.223-0.592,2.008-1.129,2.311-1.35c-0.302-1.12-1.135-2.879-1.9-3.976c-2.187-3.124-4.545-3.925-5.755-4.125&#10;&#9;&#9;&#9;&#9;c-0.463-0.074-0.832-0.119-1.356-0.119c-0.488,0-1.093,0.041-1.901,0.126c-0.81,0.083-1.714,0.296-2.761,0.65&#10;&#9;&#9;&#9;&#9;c-1.47,0.492-2.8,1.263-3.846,2.232l-0.036,0.034C393.998,757.809,393.674,758.109,393.302,758.582z M406.681,757.856&#10;&#9;&#9;&#9;&#9;c1.048,0,1.902,0.852,1.902,1.9c0,1.05-0.854,1.902-1.902,1.902s-1.9-0.852-1.9-1.902&#10;&#9;&#9;&#9;&#9;C404.781,758.708,405.633,757.856,406.681,757.856z M397.694,757.779c1.697,0,3.072,1.376,3.072,3.073&#10;&#9;&#9;&#9;&#9;c0,1.695-1.374,3.069-3.072,3.069c-1.695,0-3.07-1.374-3.07-3.069C394.624,759.155,395.999,757.779,397.694,757.779z" style="fill:#2FAFC1;"/>
		</g>
	</g>
</g>
<g id="Objects">
	<g>
		
			<circle r="340.393" cy="371.501" cx="400" style="fill:none;stroke:#2FAFC1;stroke-width:4;stroke-linecap:round;stroke-miterlimit:10;stroke-dasharray:12.0159,12.0159;"/>
	</g>
	<defs>
		<filter height="246.139" width="309.568" y="473.645" x="245.216" filterUnits="userSpaceOnUse" id="Adobe_OpacityMaskFilter">
			
				<feColorMatrix result="source" color-interpolation-filters="sRGB" values="-1 0 0 0 1  0 -1 0 0 1  0 0 -1 0 1  0 0 0 1 0" type="matrix"/>
		</filter>
	</defs>
	<mask id="SVGID_1_" height="246.139" width="309.568" y="473.645" x="245.216" maskUnits="userSpaceOnUse">
		<g style="filter:url(#Adobe_OpacityMaskFilter);">
			
				<linearGradient y2="719.3658" x2="400" y1="599.3646" x1="400" gradientUnits="userSpaceOnUse" id="SVGID_00000060003381892912302910000015227816991476692898_">
				<stop style="stop-color:#000000" offset="0"/>
				<stop style="stop-color:#FFFFFF" offset="1"/>
			</linearGradient>
			<path d="M495.498,473.645H304.502&#10;&#9;&#9;&#9;&#9;c-32.743,0-59.286,26.543-59.286,59.286v70.746c0,32.743,26.543,59.286,59.286,59.286h71.98&#10;&#9;&#9;&#9;&#9;c-1.021,1.302-1.635,2.938-1.635,4.721v4.592c0,4.233,3.432,7.664,7.665,7.664c-4.233,0-7.665,3.432-7.665,7.664v4.592&#10;&#9;&#9;&#9;&#9;c0,4.233,3.432,7.665,7.665,7.665c-4.233,0-7.665,3.431-7.665,7.664v4.592c0,4.233,3.432,7.664,7.665,7.664h34.975&#10;&#9;&#9;&#9;&#9;c4.233,0,7.665-3.432,7.665-7.664v-4.592c0-4.233-3.432-7.664-7.665-7.664c4.233,0,7.665-3.432,7.665-7.665v-4.592&#10;&#9;&#9;&#9;&#9;c0-4.233-3.432-7.664-7.665-7.664c4.233,0,7.665-3.432,7.665-7.664v-4.592c0-1.783-0.614-3.419-1.635-4.721h71.98&#10;&#9;&#9;&#9;&#9;c32.743,0,59.286-26.543,59.286-59.286v-70.746C554.784,500.188,528.241,473.645,495.498,473.645z" style="fill:url(#SVGID_00000060003381892912302910000015227816991476692898_);"/>
		</g>
	</mask>
	<g style="mask:url(#SVGID_1_);">
		<path d="M506.998,662.964H293.002c-26.392,0-47.786-21.395-47.786-47.786v-93.746&#10;&#9;&#9;&#9;c0-26.392,21.395-47.786,47.786-47.786h213.995c26.392,0,47.786,21.395,47.786,47.786v93.746&#10;&#9;&#9;&#9;C554.784,641.57,533.389,662.964,506.998,662.964z" style="fill:#3C4043;"/>
		<path d="M459.743,620.178H340.257c-12.783,0-23.145-10.362-23.145-23.145v-11.14&#10;&#9;&#9;&#9;c0-12.783,10.362-23.145,23.145-23.145h119.486c12.783,0,23.145,10.362,23.145,23.145v11.14&#10;&#9;&#9;&#9;C482.888,609.816,472.525,620.178,459.743,620.178z" style="fill:#6D6E72;"/>
		<path d="M418.974,640.099h-37.949c-3.412,0-6.178-2.766-6.178-6.178v-7.565&#10;&#9;&#9;&#9;c0-3.412,2.766-6.178,6.178-6.178h37.949c3.412,0,6.178,2.766,6.178,6.178v7.565C425.152,637.334,422.386,640.099,418.974,640.099&#10;&#9;&#9;&#9;z" style="fill:#53555B;"/>
		<path d="M418.974,660.021h-37.949c-3.412,0-6.178-2.766-6.178-6.178v-7.565&#10;&#9;&#9;&#9;c0-3.412,2.766-6.178,6.178-6.178h37.949c3.412,0,6.178,2.766,6.178,6.178v7.565C425.152,657.255,422.386,660.021,418.974,660.021&#10;&#9;&#9;&#9;z" style="fill:#6D6E72;"/>
		<path d="M418.974,679.942h-37.949c-3.412,0-6.178-2.766-6.178-6.178v-7.565&#10;&#9;&#9;&#9;c0-3.412,2.766-6.178,6.178-6.178h37.949c3.412,0,6.178,2.766,6.178,6.178v7.565C425.152,677.176,422.386,679.942,418.974,679.942&#10;&#9;&#9;&#9;z" style="fill:#53555B;"/>
		<path d="M418.974,699.863h-37.949c-3.412,0-6.178-2.766-6.178-6.178v-7.565&#10;&#9;&#9;&#9;c0-3.412,2.766-6.178,6.178-6.178h37.949c3.412,0,6.178,2.766,6.178,6.178v7.565C425.152,697.097,422.386,699.863,418.974,699.863&#10;&#9;&#9;&#9;z" style="fill:#6D6E72;"/>
		<path d="M418.974,719.784h-37.949c-3.412,0-6.178-2.766-6.178-6.178v-7.565&#10;&#9;&#9;&#9;c0-3.412,2.766-6.178,6.178-6.178h37.949c3.412,0,6.178,2.766,6.178,6.178v7.565C425.152,717.018,422.386,719.784,418.974,719.784&#10;&#9;&#9;&#9;z" style="fill:#53555B;"/>
		<g>
			<g>
				<circle r="4.652" cy="607.681" cx="341.157" style="fill:#53555B;"/>
				<circle r="4.652" cy="575.246" cx="341.157" style="fill:#53555B;"/>
			</g>
			<g>
				<circle r="4.652" cy="607.681" cx="458.843" style="fill:#53555B;"/>
				<circle r="4.652" cy="575.246" cx="458.843" style="fill:#53555B;"/>
			</g>
		</g>
	</g>
	<circle r="317.894" cy="371.501" cx="400" style="fill:#2FAFC1;"/>
	<g>
		<path d="M552.745,248.527v193.878c0,8.468-6.867,15.335-15.335,15.335H262.59&#10;&#9;&#9;&#9;c-8.468,0-15.335-6.867-15.335-15.335V248.527c0-8.468,6.867-15.335,15.335-15.335h274.82&#10;&#9;&#9;&#9;C545.878,233.191,552.745,240.058,552.745,248.527z" style="fill:#E6E9F1;"/>
		<path d="M552.745,248.527v166.505H247.255V248.527c0-8.468,6.867-15.335,15.335-15.335h274.82&#10;&#9;&#9;&#9;C545.878,233.191,552.745,240.058,552.745,248.527z" style="fill:#3C4043;"/>
		<rect height="157.242" width="276.189" style="fill:#6D6E72;" y="245.956" x="261.905"/>
		<g>
			
				<linearGradient y2="389.4883" x2="370.6984" y1="250" x1="370.6984" gradientUnits="userSpaceOnUse" id="SVGID_00000049922364571065911110000010381362532596757125_">
				<stop style="stop-color:#FFFFFF;stop-opacity:0.7" offset="0"/>
				<stop style="stop-color:#FFFFFF;stop-opacity:0" offset="1"/>
			</linearGradient>
			<polygon points="359.529,403.198 &#10;&#9;&#9;&#9;&#9;318.333,403.198 381.868,245.956 423.064,245.956" style="fill:url(#SVGID_00000049922364571065911110000010381362532596757125_);"/>
			
				<linearGradient y2="389.4883" x2="440.9062" y1="250" x1="440.9062" gradientUnits="userSpaceOnUse" id="SVGID_00000158007406862447829380000008883844220440756107_">
				<stop style="stop-color:#FFFFFF;stop-opacity:0.7" offset="0"/>
				<stop style="stop-color:#FFFFFF;stop-opacity:0" offset="1"/>
			</linearGradient>
			<polygon points="418.132,403.198 &#10;&#9;&#9;&#9;&#9;400.145,403.198 463.68,245.956 481.667,245.956" style="fill:url(#SVGID_00000158007406862447829380000008883844220440756107_);"/>
		</g>
		<circle r="8.123" cy="435.691" cx="400" style="fill:#3C4043;"/>
		<polygon points="433.102,487.332 366.898,487.332 370.384,457.74 429.616,457.74" style="fill:#D4D7DD;"/>
		<path d="M455.675,497.128H344.325v-5.883c0-2.161,1.752-3.913,3.913-3.913h103.523&#10;&#9;&#9;&#9;c2.161,0,3.913,1.752,3.913,3.913V497.128z" style="fill:#E6E9F1;"/>
		<circle r="1.226" cy="239.642" cx="400" style="fill:#7B7C80;"/>
	</g>
	<rect height="23.872" width="661.894" style="fill:#2F5873;" y="497.128" x="69.053"/>
	<g>
		<path d="M193.252,404.462h-33.932c-2.842,0-5.146-2.304-5.146-5.146v-25.224&#10;&#9;&#9;&#9;c0-2.842,2.304-5.146,5.146-5.146h33.932c2.842,0,5.146,2.304,5.146,5.146v25.224&#10;&#9;&#9;&#9;C198.399,402.158,196.095,404.462,193.252,404.462z" style="fill:#F76300;"/>
		<path d="M169.226,362h14.122c1.659,0,3.004,1.345,3.004,3.004v3.942h-20.13v-3.942&#10;&#9;&#9;&#9;C166.222,363.345,167.567,362,169.226,362z" style="fill:#CC5E12;"/>
		<rect height="4.64" width="16.64" style="fill:#CC5E12;" y="404.462" x="167.966"/>
		<rect height="36.593" width="44.224" style="fill:#F76300;" y="409.102" x="154.174"/>
		<rect height="7.948" width="44.224" style="fill:#CC5E12;" y="445.695" x="154.174"/>
		<rect height="13.004" width="9.946" style="fill:#CC5E12;" y="449.669" x="171.314"/>
		<rect height="43.485" width="17.139" style="fill:#F76300;" y="453.643" x="154.174"/>
		<rect height="43.485" width="17.139" style="fill:#F76300;" y="453.643" x="181.259"/>
		<g>
			<rect height="1.915" width="10.686" style="fill:#F76300;" y="386.138" x="140.32"/>
			<rect height="15.646" width="6.336" style="fill:#CC5E12;" y="379.272" x="147.839"/>
			<circle r="2.946" cy="387.095" cx="139.203" style="fill:#CC5E12;"/>
		</g>
		<g>
			
				<rect height="1.915" width="10.686" style="fill:#F76300;" transform="matrix(-1 -4.485224e-11 4.485224e-11 -1 413.8193 774.1906)" y="386.138" x="201.566"/>
			
				<rect height="15.646" width="6.336" style="fill:#CC5E12;" transform="matrix(-1 -4.464308e-11 4.464308e-11 -1 403.133 774.1906)" y="379.272" x="198.399"/>
			<circle r="2.946" cy="387.095" cx="213.37" style="fill:#CC5E12;"/>
		</g>
		<g>
			<polygon points="154.174,409.102 146.414,416.862 137.685,446.223 145.149,448.977 154.174,419.709" style="fill:#CC5E12;"/>
			<polygon points="148.375,448.298 143.79,460.552 140.521,459.329 143.304,451.891 137.581,449.75 &#10;&#9;&#9;&#9;&#9;134.798,457.188 131.529,455.965 136.114,443.71" style="fill:#F76300;"/>
		</g>
		<g>
			<polygon points="198.399,409.102 206.159,416.862 214.888,446.223 207.424,448.977 198.399,419.709" style="fill:#CC5E12;"/>
			<polygon points="204.198,448.298 208.783,460.552 212.052,459.329 209.269,451.891 214.992,449.75 &#10;&#9;&#9;&#9;&#9;217.775,457.188 221.044,455.965 216.459,443.71" style="fill:#F76300;"/>
		</g>
		<rect height="19.355" width="30.205" style="fill:#E6E9F1;" y="415.899" x="161.184"/>
		<path d="M185.373,398.068H167.2c-1.968,0-3.562-1.595-3.562-3.563v-1.562c0-1.968,1.595-3.563,3.562-3.563&#10;&#9;&#9;&#9;h18.173c1.968,0,3.563,1.595,3.563,3.563v1.562C188.936,396.473,187.341,398.068,185.373,398.068z" style="fill:#E6E9F1;"/>
		<g>
			<g>
				<circle r="5.791" cy="381.304" cx="166.975" style="fill:#3C4043;"/>
				<circle r="3.889" cy="381.304" cx="166.975" style="fill:#E6E9F1;"/>
			</g>
			<g>
				<circle r="5.791" cy="381.304" cx="185.598" style="fill:#3C4043;"/>
				<circle r="3.889" cy="381.304" cx="185.598" style="fill:#E6E9F1;"/>
			</g>
		</g>
		<g>
			<circle r="3.203" cy="421.632" cx="167.475" style="fill:#F76300;"/>
			<circle r="3.203" cy="429.52" cx="167.475" style="fill:#3C4043;"/>
			<rect height="14.295" width="13.818" style="fill:#3C4043;" y="418.429" x="174.483"/>
		</g>
	</g>
	<g>
		<g>
			<path d="M478.878,497.128H232.763v-3.275c0-5.939,4.815-10.754,10.754-10.754h224.607&#10;&#9;&#9;&#9;&#9;c5.939,0,10.754,4.815,10.754,10.754V497.128z" style="fill:#CCCFD6;"/>
			<rect height="7.014" width="246.115" style="fill:#D4D7DD;" y="490.113" x="232.763"/>
		</g>
		<path d="M557.63,480h-22.952c-5.306,0-9.607,4.301-9.607,9.607v0c0,4.153,3.367,7.52,7.52,7.52h27.126&#10;&#9;&#9;&#9;c4.153,0,7.52-3.367,7.52-7.52v0C567.237,484.301,562.936,480,557.63,480z" style="fill:#E6E9F1;"/>
	</g>
	<g>
		<rect height="21.461" width="112.227" style="fill:#F76300;" y="475.667" x="605.667"/>
		<g>
			<rect height="21.461" width="7.333" style="fill:#C94F0D;" y="475.667" x="703.53"/>
			<rect height="21.461" width="7.333" style="fill:#C94F0D;" y="475.667" x="612.697"/>
		</g>
		<ellipse ry="5.34" rx="29.582" cy="486.397" cx="661.78" style="fill:#FFFFFF;"/>
	</g>
	<g>
		<g>
			<rect height="16.071" width="103.394" style="fill:#2B94A5;" y="459.596" x="614.5"/>
			<g>
				<rect height="16.071" width="6.756" style="fill:#2D5673;" y="459.596" x="704.661"/>
				<rect height="16.071" width="6.756" style="fill:#2D5673;" y="459.596" x="620.977"/>
			</g>
		</g>
		<g>
			<rect height="8.333" width="26.113" style="fill:#2D5673;" y="463.465" x="636.307"/>
			<rect height="8.333" width="26.113" style="fill:#2D5673;" y="463.465" x="669.973"/>
		</g>
	</g>
	<g>
		<circle r="17.47" cy="151.514" cx="403.805" style="fill:#F9E382;"/>
		
			<linearGradient gradientTransform="matrix(0.9999 0.0119 -0.0119 0.9999 37.0817 -120.9746)" y2="468.9344" x2="372.032" y1="284.2952" x1="372.032" gradientUnits="userSpaceOnUse" id="SVGID_00000168799806711414842300000009639723530949057458_">
			<stop style="stop-color:#FFFFFF;stop-opacity:0.7" offset="0"/>
			<stop style="stop-color:#FFFFFF;stop-opacity:0" offset="1"/>
		</linearGradient>
		<polygon points="568.126,379.272 &#10;&#9;&#9;&#9;238.259,379.272 368.482,150.727 437.903,150.727" style="fill:url(#SVGID_00000168799806711414842300000009639723530949057458_);"/>
		<path d="M390.545,70.092h26.519c5.602,0,10.143,4.541,10.143,10.143v36.199l-46.805,0V80.235&#10;&#9;&#9;&#9;C380.402,74.633,384.943,70.092,390.545,70.092z" style="fill:#21475E;"/>
		<path d="M447.598,150.727h-87.586v-20.403c0-17.397,14.103-31.5,31.5-31.5h24.586&#10;&#9;&#9;&#9;c17.397,0,31.5,14.103,31.5,31.5V150.727z" style="fill:#2D5673;"/>
	</g>
	<defs>
		
			<filter height="246.139" width="309.568" y="473.645" x="245.216" filterUnits="userSpaceOnUse" id="Adobe_OpacityMaskFilter_00000073678930908659282700000003125655227739497370_">
			
				<feColorMatrix result="source" color-interpolation-filters="sRGB" values="-1 0 0 0 1  0 -1 0 0 1  0 0 -1 0 1  0 0 0 1 0" type="matrix"/>
		</filter>
	</defs>
	
		<mask id="SVGID_00000165945973242406410930000008599525627174907013_" height="246.139" width="309.568" y="473.645" x="245.216" maskUnits="userSpaceOnUse">
		<g style="filter:url(#Adobe_OpacityMaskFilter_00000073678930908659282700000003125655227739497370_);">
			
				<linearGradient y2="719.3658" x2="400" y1="599.3646" x1="400" gradientUnits="userSpaceOnUse" id="SVGID_00000142882035481955152840000006724471992161160631_">
				<stop style="stop-color:#000000" offset="0"/>
				<stop style="stop-color:#FFFFFF" offset="1"/>
			</linearGradient>
			<path d="M495.498,473.645H304.502&#10;&#9;&#9;&#9;&#9;c-32.743,0-59.286,26.543-59.286,59.286v70.746c0,32.743,26.543,59.286,59.286,59.286h71.98&#10;&#9;&#9;&#9;&#9;c-1.021,1.302-1.635,2.938-1.635,4.721v4.592c0,4.233,3.432,7.664,7.665,7.664c-4.233,0-7.665,3.432-7.665,7.664v4.592&#10;&#9;&#9;&#9;&#9;c0,4.233,3.432,7.665,7.665,7.665c-4.233,0-7.665,3.431-7.665,7.664v4.592c0,4.233,3.432,7.664,7.665,7.664h34.975&#10;&#9;&#9;&#9;&#9;c4.233,0,7.665-3.432,7.665-7.664v-4.592c0-4.233-3.432-7.664-7.665-7.664c4.233,0,7.665-3.432,7.665-7.665v-4.592&#10;&#9;&#9;&#9;&#9;c0-4.233-3.432-7.664-7.665-7.664c4.233,0,7.665-3.432,7.665-7.664v-4.592c0-1.783-0.614-3.419-1.635-4.721h71.98&#10;&#9;&#9;&#9;&#9;c32.743,0,59.286-26.543,59.286-59.286v-70.746C554.784,500.188,528.241,473.645,495.498,473.645z" style="fill:url(#SVGID_00000142882035481955152840000006724471992161160631_);"/>
		</g>
	</mask>
	<g style="mask:url(#SVGID_00000165945973242406410930000008599525627174907013_);">
		<path d="M506.998,662.964H293.002c-26.392,0-47.786-21.395-47.786-47.786v-93.746&#10;&#9;&#9;&#9;c0-26.392,21.395-47.786,47.786-47.786h213.995c26.392,0,47.786,21.395,47.786,47.786v93.746&#10;&#9;&#9;&#9;C554.784,641.57,533.389,662.964,506.998,662.964z" style="fill:#3C4043;"/>
		<path d="M459.743,620.178H340.257c-12.783,0-23.145-10.362-23.145-23.145v-11.14&#10;&#9;&#9;&#9;c0-12.783,10.362-23.145,23.145-23.145h119.486c12.783,0,23.145,10.362,23.145,23.145v11.14&#10;&#9;&#9;&#9;C482.888,609.816,472.525,620.178,459.743,620.178z" style="fill:#6D6E72;"/>
		<path d="M418.974,640.099h-37.949c-3.412,0-6.178-2.766-6.178-6.178v-7.565&#10;&#9;&#9;&#9;c0-3.412,2.766-6.178,6.178-6.178h37.949c3.412,0,6.178,2.766,6.178,6.178v7.565C425.152,637.334,422.386,640.099,418.974,640.099&#10;&#9;&#9;&#9;z" style="fill:#53555B;"/>
		<path d="M418.974,660.021h-37.949c-3.412,0-6.178-2.766-6.178-6.178v-7.565&#10;&#9;&#9;&#9;c0-3.412,2.766-6.178,6.178-6.178h37.949c3.412,0,6.178,2.766,6.178,6.178v7.565C425.152,657.255,422.386,660.021,418.974,660.021&#10;&#9;&#9;&#9;z" style="fill:#6D6E72;"/>
		<path d="M418.974,679.942h-37.949c-3.412,0-6.178-2.766-6.178-6.178v-7.565&#10;&#9;&#9;&#9;c0-3.412,2.766-6.178,6.178-6.178h37.949c3.412,0,6.178,2.766,6.178,6.178v7.565C425.152,677.176,422.386,679.942,418.974,679.942&#10;&#9;&#9;&#9;z" style="fill:#53555B;"/>
		<path d="M418.974,699.863h-37.949c-3.412,0-6.178-2.766-6.178-6.178v-7.565&#10;&#9;&#9;&#9;c0-3.412,2.766-6.178,6.178-6.178h37.949c3.412,0,6.178,2.766,6.178,6.178v7.565C425.152,697.097,422.386,699.863,418.974,699.863&#10;&#9;&#9;&#9;z" style="fill:#6D6E72;"/>
		<path d="M418.974,719.784h-37.949c-3.412,0-6.178-2.766-6.178-6.178v-7.565&#10;&#9;&#9;&#9;c0-3.412,2.766-6.178,6.178-6.178h37.949c3.412,0,6.178,2.766,6.178,6.178v7.565C425.152,717.018,422.386,719.784,418.974,719.784&#10;&#9;&#9;&#9;z" style="fill:#53555B;"/>
		<g>
			<g>
				<circle r="4.652" cy="607.681" cx="341.157" style="fill:#53555B;"/>
				<circle r="4.652" cy="575.246" cx="341.157" style="fill:#53555B;"/>
			</g>
			<g>
				<circle r="4.652" cy="607.681" cx="458.843" style="fill:#53555B;"/>
				<circle r="4.652" cy="575.246" cx="458.843" style="fill:#53555B;"/>
			</g>
		</g>
	</g>
	<g>
		<rect height="148" width="143" style="fill:#F76300;" y="184.388" x="69.053"/>
		<rect height="112" width="108.216" style="fill:#A5DDE8;" y="202.388" x="86.445"/>
		<path d="M86.445,248.055c0,0,12.479-10.667,20.877-6.667s33.231,30.477,33.231,30.477&#10;&#9;&#9;&#9;s32.5-22.477,41.5-18.477c9,4,12.608,10,12.608,10v51H86.445V248.055z" style="fill:#2B94A5;"/>
		<circle r="13" cy="233.055" cx="144.72" style="fill:#2FAFC1;"/>
		
			<linearGradient y2="304.2725" x2="124.0204" y1="215.2725" x1="164.0204" gradientUnits="userSpaceOnUse" id="SVGID_00000065073580607070949920000013458682976425281174_">
			<stop style="stop-color:#FFFFFF;stop-opacity:0.7" offset="0"/>
			<stop style="stop-color:#FFFFFF;stop-opacity:0" offset="1"/>
		</linearGradient>
		<polygon points="136.718,314.388 &#10;&#9;&#9;&#9;107.322,314.388 152.657,202.188 182.053,202.188" style="fill:url(#SVGID_00000065073580607070949920000013458682976425281174_);"/>
	</g>
	<g>
		<rect height="3.507" width="142.047" style="fill:#3C4043;" y="493.621" x="73.227"/>
		<g>
			<path d="M144.25,488.841c0,0,7.583-7.5,23.917-3.833c16.333,3.667,36.333,6.333,42.167-0.167l-1.167,3.167&#10;&#9;&#9;&#9;&#9;l2.333-0.5v6.113h-67.25V488.841z" style="fill:#E6E9F1;"/>
			<path d="M144.25,488.841c0,0-7.583-7.5-23.917-3.833C104,488.674,84,491.341,78.167,484.841l1.167,3.167&#10;&#9;&#9;&#9;&#9;l-2.333-0.5v6.113h67.25V488.841z" style="fill:#E6E9F1;"/>
		</g>
	</g>
	<g>
		<circle r="67.194" cy="251.583" cx="664.194" style="fill:#21475E;"/>
		<path d="M717.78,251.58c0,29.13-23.24,52.83-52.19,53.57c-0.46,0.01-0.93,0.02-1.4,0.02&#10;&#9;&#9;&#9;c-10.41,0-20.13-2.97-28.36-8.12c-15.15-9.46-25.22-26.29-25.22-45.47c0-29.59,23.99-53.58,53.58-53.58&#10;&#9;&#9;&#9;c3.84,0,7.58,0.4,11.19,1.17c10.47,2.22,19.81,7.5,27.03,14.86C711.92,223.7,717.78,236.95,717.78,251.58z" style="fill:#E6E9F1;"/>
		<rect height="22.991" width="4.077" style="fill:#21475E;" y="226.226" x="662.155"/>
		
			<rect height="39.916" width="4.077" style="fill:#F76300;" transform="matrix(-0.7071 0.7071 -0.7071 -0.7071 1349.8549 -24.3928)" y="247.41" x="677.941"/>
		
			<linearGradient y2="291.1017" x2="652.9831" y1="219.3555" x1="685.2286" gradientUnits="userSpaceOnUse" id="SVGID_00000131335857548305591100000014050302470164108427_">
			<stop style="stop-color:#FFFFFF;stop-opacity:0.7" offset="0"/>
			<stop style="stop-color:#FFFFFF;stop-opacity:0" offset="1"/>
		</linearGradient>
		<path d="M702.41,214.03l-36.82,91.12&#10;&#9;&#9;&#9;c-0.46,0.01-0.93,0.02-1.4,0.02c-10.41,0-20.13-2.97-28.36-8.12l39.55-97.88C685.85,201.39,695.19,206.67,702.41,214.03z" style="fill:url(#SVGID_00000131335857548305591100000014050302470164108427_);"/>
	</g>
	<g>
		<g>
			
				<rect height="53.333" width="5.447" style="fill:#F76300;" transform="matrix(0.9811 0.1935 -0.1935 0.9811 95.5255 -122.1684)" y="401.313" x="670.508"/>
			
				<rect height="2.996" width="5.447" style="fill:#2D5673;" transform="matrix(0.9811 0.1935 -0.1935 0.9811 100.211 -120.7597)" y="451.175" x="665.638"/>
			<polygon points="679.021,394.712 680.505,395.005 681.063,402.344 675.719,401.29" style="fill:#FFFFFF;"/>
			
				<rect height="1.126" width="1.523" style="fill:#2D5673;" transform="matrix(0.9811 0.1935 -0.1935 0.9811 89.1361 -124.0904)" y="393.744" x="679.115"/>
		</g>
		<g>
			
				<rect height="53.333" width="5.447" style="fill:#F76300;" transform="matrix(0.9966 -0.0822 0.0822 0.9966 -33.1205 55.6502)" y="403.395" x="656.568"/>
			
				<rect height="2.996" width="5.447" style="fill:#2D5673;" transform="matrix(0.9966 -0.0822 0.0822 0.9966 -35.1754 55.9052)" y="453.647" x="658.637"/>
			<polygon points="655.762,396.479 657.27,396.355 659.813,403.262 654.385,403.709" style="fill:#FFFFFF;"/>
			
				<rect height="1.126" width="1.523" style="fill:#2D5673;" transform="matrix(0.9966 -0.0822 0.0822 0.9966 -30.3182 55.3029)" y="395.292" x="655.713"/>
		</g>
		<g>
			<polygon points="681.71,415.03 681.26,419.16 676.8,459.6 655.6,459.6 654.68,451.28 &#10;&#9;&#9;&#9;&#9;650.68,415.03" style="opacity:0.48;fill:#A5DDE8;"/>
			
				<linearGradient y2="454.5026" x2="659.4002" y1="420.1298" x1="674.8487" gradientUnits="userSpaceOnUse" id="SVGID_00000014595570827993017320000012766195794212911281_">
				<stop style="stop-color:#FFFFFF;stop-opacity:0.7" offset="0"/>
				<stop style="stop-color:#FFFFFF;stop-opacity:0" offset="1"/>
			</linearGradient>
			<polygon points="681.71,415.03 681.26,419.16 &#10;&#9;&#9;&#9;&#9;664.92,459.6 655.6,459.6 654.68,451.28 669.33,415.03" style="fill:url(#SVGID_00000014595570827993017320000012766195794212911281_);"/>
		</g>
	</g>
</g>
</svg>